<svg xmlns="http://www.w3.org/2000/svg" width="131" height="42" viewBox="0 0 131 42">
<g>
<path stroke="black" fill="white" d="M116,0.5C124.01,0.5 130.5,6.99 130.5,15L130.5,41.5L15,41.5C6.99,41.5 0.5,35.01 0.5,27L0.5,0.5L116,0.5z"/>
<path fill="black" d="M18.2725,25.097500059604645 C21.7425,27.897500059604646 26.6925,27.897500059604646 30.1625,25.097500059604645 L28.8225,23.437500059604645 C26.1325,25.617500059604644 22.3025,25.617500059604644 19.6125,23.437500059604645 L18.2725,25.097500059604645 z" transform="rotate(177.808 24.2175 25.3175)"/>
<path fill="black" d="M19.4,20.51L19.4,17.64L21.53,17.64L21.53,20.51L19.4,20.51z"/>
<path fill="black" d="M26.01,17.64L26.01,20.51L28.14,20.51L28.14,17.64L26.01,17.64z"/>
<path fill="black" d="M35,21.5C35,27.85 29.85,33 23.5,33C17.15,33 12,27.85 12,21.5C12,15.15 17.15,10 23.5,10C29.85,10 35,15.15 35,21.5zM32.87,21.5C32.87,26.68 28.68,30.87 23.5,30.87C18.32,30.87 14.13,26.68 14.13,21.5C14.13,16.32 18.32,12.13 23.5,12.13C28.68,12.13 32.87,16.32 32.87,21.5z" clip-rule="evenodd" fill-rule="evenodd"/>
<path fill="black" d="M91.04,16.66L95.66,3.57L98.72,3.57L103.31,16.66L100.37,16.66L99.54,13.97L94.77,13.97L93.87,16.66L91.04,16.66zM97.17,6.56L95.5,11.71L98.78,11.71L97.17,6.56z" clip-rule="evenodd" fill-rule="evenodd"/>
<path fill="black" d="M77.6,22.2C78.86,22.2 79.85,22.65 80.55,23.57C81.27,24.49 81.63,25.67 81.63,27.12C81.63,28.63 81.27,29.87 80.57,30.86C79.87,31.85 78.89,32.34 77.63,32.34C76.84,32.34 76.2,32.18 75.72,31.86C75.43,31.67 75.12,31.34 74.79,30.87L74.79,32.09L72.34,32.09L72.34,19.02L74.83,19.02L74.83,23.67C75.15,23.22 75.5,22.88 75.88,22.64C76.33,22.34 76.91,22.2 77.6,22.2zM76.96,30.26C77.61,30.26 78.11,29.99 78.46,29.47C78.82,28.94 79,28.25 79,27.39C79,26.7 78.91,26.13 78.74,25.68C78.4,24.83 77.79,24.41 76.89,24.41C75.98,24.41 75.36,24.82 75.02,25.66C74.84,26.1 74.76,26.68 74.76,27.38C74.76,28.21 74.94,28.9 75.3,29.44C75.66,29.98 76.22,30.26 76.96,30.26z" clip-rule="evenodd" fill-rule="evenodd"/>
<path fill="black" d="M66.52,30.16C66.42,30.06 66.37,29.81 66.37,29.41L66.37,24.3L67.93,24.3L67.93,22.5L66.37,22.5L66.37,19.8L63.9,19.8L63.9,22.5L62.56,22.5L62.56,24.3L63.9,24.3L63.9,30.26C63.9,30.86 64.04,31.31 64.32,31.6C64.75,32.05 65.56,32.26 66.74,32.22L67.93,32.17L67.93,30.28C67.85,30.29 67.76,30.29 67.67,30.3L67.44,30.3C66.93,30.3 66.62,30.25 66.52,30.16z"/>
<path fill="black" d="M62.46,27.26C62.46,28.69 62.06,29.9 61.25,30.91C60.44,31.92 59.22,32.42 57.57,32.42C55.92,32.42 54.7,31.92 53.89,30.91C53.08,29.9 52.68,28.69 52.68,27.26C52.68,25.87 53.08,24.66 53.89,23.63C54.7,22.61 55.92,22.1 57.57,22.1C59.22,22.1 60.44,22.61 61.25,23.63C62.06,24.66 62.46,25.87 62.46,27.26zM57.56,30.3C58.29,30.3 58.86,30.04 59.25,29.51C59.64,28.98 59.84,28.24 59.84,27.26C59.84,26.29 59.64,25.55 59.25,25.03C58.86,24.5 58.29,24.24 57.56,24.24C56.83,24.24 56.26,24.5 55.86,25.03C55.47,25.55 55.28,26.29 55.28,27.26C55.28,28.24 55.47,28.98 55.86,29.51C56.26,30.04 56.83,30.3 57.56,30.3z" clip-rule="evenodd" fill-rule="evenodd"/>
<path fill="black" d="M48.29,22.18C49.28,22.18 50.09,22.44 50.71,22.97C51.35,23.49 51.66,24.36 51.66,25.57L51.66,32.09L49.1,32.09L49.1,26.2C49.1,25.69 49.03,25.3 48.9,25.03C48.65,24.53 48.18,24.28 47.49,24.28C46.64,24.28 46.06,24.65 45.74,25.37C45.58,25.76 45.5,26.25 45.5,26.85L45.5,32.09L43,32.09L43,22.43L45.42,22.43L45.42,23.84C45.74,23.34 46.04,22.98 46.33,22.76C46.85,22.37 47.5,22.18 48.29,22.18z"/>
<path fill="black" d="M83.41,33.96L83.09,33.94L83.09,35.96C83.36,35.98 83.57,35.99 83.7,35.99C83.84,36 84.01,36 84.24,36C85.34,36 86.08,35.78 86.45,35.33C86.82,34.9 87.32,33.76 87.95,31.93L91.24,22.41L88.58,22.41L86.6,29.55L84.51,22.41L81.72,22.41L85.24,32.51C85.26,32.58 85.21,32.78 85.08,33.1C84.96,33.42 84.82,33.63 84.68,33.73C84.52,33.83 84.34,33.9 84.11,33.93C83.89,33.96 83.66,33.97 83.41,33.96z"/>
<path fill="black" d="M107.62,14.29L107.62,5.65L106.02,5.65L106.02,3.43L111.71,3.43L111.71,5.65L110.3,5.65L110.3,14.29L111.71,14.29L111.71,16.52L106.02,16.52L106.02,14.29L107.62,14.29z"/>
<path fill="black" d="M80.25,13.84L81.67,9.55L82.65,9.55C82.52,9.89 82.25,10.66 81.82,11.86C81.5,12.77 81.23,13.5 81.01,14.07C80.5,15.42 80.14,16.24 79.93,16.53C79.72,16.83 79.36,16.97 78.85,16.97C78.73,16.97 78.63,16.97 78.56,16.96C78.49,16.95 78.41,16.93 78.31,16.9L78.31,16.1C78.47,16.14 78.58,16.17 78.65,16.18C78.72,16.19 78.78,16.19 78.83,16.19C78.99,16.19 79.11,16.16 79.19,16.11C79.27,16.06 79.33,15.99 79.39,15.91C79.4,15.89 79.46,15.75 79.56,15.51C79.66,15.27 79.74,15.09 79.78,14.97L77.84,9.55L78.84,9.55L80.25,13.84z"/>
<path fill="black" d="M125.99,26.27C126.78,26.27 127.35,26.5 127.7,26.97C127.92,27.26 128.03,27.58 128.02,27.92L127.19,27.92C127.17,27.72 127.1,27.54 126.97,27.38C126.77,27.14 126.42,27.03 125.92,27.03C125.58,27.03 125.33,27.09 125.16,27.22C124.99,27.35 124.9,27.52 124.9,27.73C124.9,27.96 125.01,28.14 125.24,28.28C125.37,28.36 125.56,28.43 125.82,28.49L126.4,28.64C127.04,28.79 127.47,28.94 127.68,29.08C128.03,29.31 128.2,29.66 128.2,30.15C128.2,30.62 128.02,31.02 127.66,31.36C127.31,31.7 126.77,31.87 126.04,31.87C125.26,31.87 124.7,31.7 124.37,31.34C124.05,30.99 123.88,30.55 123.85,30.02L124.7,30.02C124.73,30.32 124.8,30.54 124.93,30.7C125.15,30.98 125.53,31.13 126.09,31.13C126.41,31.13 126.7,31.06 126.95,30.92C127.2,30.77 127.32,30.55 127.32,30.25C127.32,30.03 127.22,29.85 127.02,29.74C126.9,29.66 126.64,29.58 126.27,29.49L125.56,29.31C125.11,29.2 124.78,29.07 124.57,28.94C124.19,28.7 124,28.36 124,27.94C124,27.44 124.18,27.04 124.54,26.73C124.9,26.43 125.38,26.27 125.99,26.27z"/>
<path fill="black" d="M61.77,9.43C62.14,9.43 62.5,9.52 62.86,9.7C63.21,9.87 63.47,10.1 63.66,10.38C63.83,10.64 63.95,10.95 64.01,11.31C64.06,11.55 64.09,11.94 64.09,12.47L60.23,12.47C60.25,13 60.37,13.43 60.61,13.75C60.85,14.07 61.21,14.24 61.71,14.24C62.17,14.24 62.54,14.08 62.81,13.78C62.97,13.6 63.08,13.4 63.15,13.16L64.02,13.16C63.99,13.36 63.92,13.57 63.78,13.81C63.66,14.05 63.51,14.24 63.35,14.39C63.08,14.65 62.75,14.83 62.35,14.92C62.14,14.98 61.9,15 61.63,15C60.98,15 60.42,14.77 59.96,14.29C59.51,13.81 59.28,13.14 59.28,12.28C59.28,11.44 59.51,10.75 59.97,10.22C60.43,9.7 61.03,9.43 61.77,9.43zM61.71,10.21C61.31,10.21 60.97,10.35 60.69,10.65C60.42,10.94 60.27,11.31 60.25,11.76L63.18,11.76C63.14,11.38 63.06,11.07 62.93,10.84C62.69,10.42 62.28,10.21 61.71,10.21z" clip-rule="evenodd" fill-rule="evenodd"/>
<path fill="black" d="M115.01,26.14C115.63,26.14 116.13,26.26 116.52,26.49C116.9,26.73 117.09,27.1 117.09,27.59L117.09,30.63C117.09,30.72 117.11,30.79 117.15,30.85C117.19,30.9 117.27,30.93 117.39,30.93C117.43,30.93 117.47,30.93 117.52,30.93C117.57,30.92 117.62,30.91 117.68,30.9L117.68,31.55C117.54,31.59 117.44,31.62 117.36,31.63C117.29,31.64 117.19,31.64 117.07,31.64C116.76,31.64 116.54,31.53 116.41,31.32C116.33,31.2 116.28,31.04 116.25,30.83C116.07,31.07 115.81,31.27 115.48,31.45C115.14,31.62 114.77,31.71 114.36,31.71C113.87,31.71 113.47,31.56 113.16,31.26C112.85,30.97 112.7,30.59 112.7,30.15C112.7,29.66 112.85,29.28 113.16,29.01C113.46,28.74 113.86,28.58 114.36,28.52L115.77,28.34C115.97,28.31 116.1,28.23 116.17,28.08C116.21,28.01 116.23,27.89 116.23,27.75C116.23,27.44 116.13,27.23 115.91,27.09C115.7,26.95 115.39,26.89 114.99,26.89C114.53,26.89 114.2,27.01 114.01,27.26C113.9,27.4 113.83,27.6 113.79,27.87L112.97,27.87C112.99,27.22 113.2,26.77 113.6,26.52C114,26.27 114.48,26.14 115.01,26.14zM116.21,28.85C116.1,28.92 115.96,28.98 115.79,29.02C115.62,29.07 115.45,29.1 115.29,29.12L114.75,29.19C114.43,29.23 114.19,29.3 114.03,29.39C113.76,29.55 113.62,29.79 113.62,30.13C113.62,30.38 113.72,30.59 113.9,30.73C114.09,30.88 114.31,30.95 114.57,30.95C114.88,30.95 115.18,30.88 115.47,30.74C115.96,30.5 116.21,30.11 116.21,29.56L116.21,28.85z" clip-rule="evenodd" fill-rule="evenodd"/>
<path fill="black" d="M73.77,10.19C73.97,9.94 74.2,9.75 74.46,9.62C74.73,9.48 75.03,9.41 75.34,9.41C76,9.41 76.53,9.64 76.93,10.09C77.34,10.54 77.55,11.2 77.55,12.08C77.55,12.92 77.35,13.61 76.94,14.16C76.54,14.71 75.98,14.98 75.27,14.98C74.87,14.98 74.53,14.89 74.25,14.69C74.09,14.58 73.91,14.39 73.73,14.14L73.73,14.82L72.91,14.82L72.91,7.57L73.77,7.57L73.77,10.19zM75.24,10.21C74.83,10.21 74.48,10.35 74.17,10.65C73.87,10.95 73.72,11.44 73.72,12.13C73.72,12.62 73.79,13.02 73.91,13.33C74.14,13.91 74.58,14.2 75.21,14.2C75.69,14.2 76.05,14.01 76.28,13.63C76.52,13.25 76.64,12.75 76.64,12.13C76.64,11.57 76.52,11.11 76.28,10.75C76.05,10.39 75.7,10.21 75.24,10.21z" clip-rule="evenodd" fill-rule="evenodd"/>
<path fill="black" d="M100.39,26.55L100.39,30.05C100.39,30.31 100.43,30.53 100.52,30.71C100.67,31.02 100.97,31.18 101.4,31.18C102.01,31.18 102.43,30.9 102.65,30.35C102.77,30.06 102.83,29.65 102.83,29.14L102.83,26.55L103.72,26.55L103.72,31.82L102.88,31.82L102.89,31.04C102.78,31.24 102.64,31.41 102.47,31.54C102.13,31.82 101.72,31.96 101.24,31.96C100.49,31.96 99.98,31.71 99.7,31.21C99.56,30.94 99.48,30.58 99.48,30.13L99.48,26.55L100.39,26.55z"/>
<path fill="black" d="M55.45,9.55L56.29,9.55L56.29,10.27L55.45,10.27L55.45,13.71C55.45,13.89 55.51,14.02 55.63,14.08C55.7,14.11 55.82,14.13 55.98,14.13L56.12,14.13C56.17,14.13 56.22,14.12 56.29,14.12L56.29,14.82C56.19,14.84 56.08,14.87 55.97,14.88C55.86,14.89 55.74,14.9 55.62,14.9C55.2,14.9 54.92,14.79 54.77,14.59C54.63,14.37 54.55,14.1 54.55,13.76L54.55,10.27L53.84,10.27L53.84,9.55L54.55,9.55L54.55,8.08L55.45,8.08L55.45,9.55z"/>
<path fill="black" d="M58.05,9.55L58.89,9.55L58.89,10.27L58.05,10.27L58.05,13.71C58.05,13.89 58.11,14.02 58.23,14.08C58.3,14.11 58.42,14.13 58.58,14.13L58.72,14.13C58.77,14.13 58.82,14.12 58.89,14.12L58.89,14.82C58.79,14.84 58.68,14.87 58.57,14.88C58.46,14.89 58.34,14.9 58.21,14.9C57.8,14.9 57.52,14.79 57.38,14.59C57.23,14.37 57.15,14.1 57.15,13.76L57.15,10.27L56.44,10.27L56.44,9.55L57.15,9.55L57.15,8.08L58.05,8.08L58.05,9.55z"/>
<path fill="black" d="M42.52,9.55L43.53,13.7L44.56,9.55L45.55,9.55L46.58,13.68L47.66,9.55L48.55,9.55L47.02,14.82L46.1,14.82L45.03,10.74L43.99,14.82L43.07,14.82L41.55,9.55L42.52,9.55z"/>
<path fill="black" d="M51.49,9.43C51.5,9.43 51.53,9.44 51.57,9.44C51.61,9.44 51.68,9.45 51.77,9.46L51.77,10.39C51.72,10.38 51.67,10.38 51.62,10.37C51.58,10.37 51.53,10.37 51.48,10.37C51.04,10.37 50.69,10.51 50.45,10.8C50.21,11.08 50.09,11.41 50.09,11.79L50.09,14.82L49.21,14.82L49.21,9.55L50.05,9.55L50.05,10.46C50.12,10.28 50.29,10.07 50.56,9.82C50.83,9.56 51.14,9.43 51.49,9.43z"/>
<path fill="black" d="M53.24,14.82L52.34,14.82L52.34,9.58L53.24,9.58L53.24,14.82z"/>
<path fill="black" d="M67.54,9.43C68.29,9.43 68.79,9.69 69.05,10.21C69.2,10.5 69.27,10.91 69.27,11.44L69.27,14.82L68.37,14.82L68.37,11.5C68.37,11.18 68.32,10.92 68.23,10.72C68.07,10.39 67.78,10.23 67.37,10.23C67.16,10.23 66.99,10.25 66.86,10.29C66.61,10.37 66.4,10.51 66.22,10.73C66.07,10.9 65.97,11.08 65.93,11.27C65.89,11.45 65.86,11.71 65.86,12.06L65.86,14.82L64.98,14.82L64.98,9.55L65.82,9.55L65.82,10.3C66.07,9.99 66.33,9.77 66.61,9.63C66.89,9.5 67.2,9.43 67.54,9.43z"/>
<path fill="black" d="M94.98,27.26C95.19,27 95.38,26.81 95.55,26.7C95.84,26.52 96.19,26.42 96.62,26.42C97.38,26.42 97.9,26.69 98.17,27.22C98.32,27.52 98.39,27.92 98.39,28.44L98.39,31.82L97.48,31.82L97.48,28.5C97.48,28.11 97.43,27.83 97.33,27.65C97.17,27.36 96.87,27.21 96.43,27.21C96.06,27.21 95.73,27.34 95.43,27.59C95.13,27.85 94.99,28.32 94.98,29.02L94.98,31.82L94.1,31.82L94.1,24.57L94.98,24.57L94.98,27.26z"/>
<path fill="black" d="M110.19,26.15C110.9,26.15 111.38,26.4 111.64,26.91C111.78,27.19 111.84,27.56 111.84,28.03L111.84,31.53L110.92,31.53L110.92,27.87C110.92,27.52 110.84,27.28 110.66,27.15C110.49,27.02 110.27,26.95 110.02,26.95C109.67,26.95 109.37,27.07 109.12,27.3C108.87,27.54 108.75,27.92 108.75,28.47L108.75,31.53L107.85,31.53L107.85,28.09C107.85,27.74 107.81,27.48 107.72,27.31C107.59,27.07 107.34,26.94 106.97,26.94C106.63,26.94 106.33,27.07 106.05,27.33C105.78,27.59 105.65,28.06 105.65,28.74L105.65,31.53L104.76,31.53L104.76,26.27L105.64,26.27L105.64,27.01C105.85,26.75 106.04,26.57 106.21,26.45C106.5,26.25 106.83,26.15 107.2,26.15C107.62,26.15 107.96,26.25 108.21,26.46C108.36,26.58 108.49,26.75 108.6,26.98C108.8,26.7 109.03,26.49 109.3,26.35C109.56,26.22 109.86,26.15 110.19,26.15z"/>
<path fill="black" d="M121.05,26.29C121.8,26.29 122.3,26.55 122.56,27.07C122.71,27.36 122.78,27.77 122.78,28.3L122.78,31.67L121.88,31.67L121.88,28.36C121.88,28.03 121.83,27.78 121.74,27.58C121.58,27.25 121.3,27.09 120.88,27.09C120.67,27.09 120.5,27.11 120.37,27.15C120.13,27.22 119.91,27.37 119.73,27.58C119.58,27.76 119.48,27.94 119.44,28.12C119.4,28.31 119.37,28.57 119.37,28.92L119.37,31.67L118.49,31.67L118.49,26.41L119.33,26.41L119.33,27.16C119.58,26.85 119.84,26.63 120.12,26.49C120.4,26.36 120.71,26.29 121.05,26.29z"/>
<path fill="black" d="M53.24,8.6L52.34,8.6L52.34,7.6L53.24,7.6L53.24,8.6z"/>
</g>
</svg>